<svg width="371" height="331" viewBox="0 0 371 331" fill="none" xmlns="http://www.w3.org/2000/svg">
<path d="M127.91 152.8L128.412 107.066L128.583 91.533L151.882 91.7889L151.408 134.935C156.163 145.862 171.091 147.272 177.808 137.428L189.542 120.231L189.954 82.7138L226.382 62.6157L223.833 294.666L291.181 295.406L291.511 265.325L256.509 230.559L258.185 78.0071L369.701 122.209L369.336 155.452L293.022 127.814L292.054 215.907L342.337 265.883L341.638 329.479L187.262 327.783L189.177 153.473C177.007 176.783 144.19 178.232 130.013 156.085L127.91 152.8Z" fill="white"/>
<rect x="62.7523" y="197.361" width="72.1432" height="62.8344" transform="rotate(0.629309 62.7523 197.361)" fill="white" stroke="white" stroke-width="2.3272"/>
<line x1="99.9975" y1="196.606" x2="99.2818" y2="261.764" stroke="white" stroke-width="2.3272"/>
<line x1="135.696" y1="230.745" x2="61.2303" y2="229.927" stroke="white" stroke-width="2.3272"/>
<path d="M297.711 24.7192L297.357 56.9484L337.921 81.0316L338.535 25.1677L297.711 24.7192Z" fill="white"/>
<path d="M167.592 328.43L137.929 290.131L45.5386 289.116L47.1747 140.155L207.65 43.209L307.701 93.5003L370.01 94.1847L208.1 2.24635L2.20909 125.529L0.000652343 326.589L167.592 328.43Z" fill="white"/>
</svg>
